<?xml version="1.0" encoding="UTF-8" standalone="no"?>
<!DOCTYPE svg PUBLIC "-//W3C//DTD SVG 1.1//EN"
 "http://www.w3.org/Graphics/SVG/1.1/DTD/svg11.dtd">
<!-- Generated by graphviz version 2.40.1 (20161225.0304)
 -->
<!-- Title: state transitions Pages: 1 -->
<svg width="661pt" height="634pt"
 viewBox="0.00 0.00 660.70 634.00" xmlns="http://www.w3.org/2000/svg" xmlns:xlink="http://www.w3.org/1999/xlink">
<g id="graph0" class="graph" transform="scale(1 1) rotate(0) translate(4 630)">
<title>state transitions</title>
<polygon fill="#ffffff" stroke="transparent" points="-4,4 -4,-630 656.702,-630 656.702,4 -4,4"/>
<g id="clust1" class="cluster state regular">
<title>cluster_state</title>
<path fill="none" stroke="#000000" stroke-width="2" d="M20,-8C20,-8 566,-8 566,-8 572,-8 578,-14 578,-20 578,-20 578,-606 578,-606 578,-612 572,-618 566,-618 566,-618 20,-618 20,-618 14,-618 8,-612 8,-606 8,-606 8,-20 8,-20 8,-14 14,-8 20,-8"/>
<text text-anchor="start" x="279.9944" y="-599.2" font-family="Helvetica,sans-Serif" font-size="12.00" fill="#000000">state</text>
</g>
<!-- state -->
<!-- IDLE -->
<g id="node2" class="node state regular">
<title>IDLE</title>
<polygon fill="#ffffff" fill-opacity="0.003922" stroke="transparent" stroke-width="2" points="319,-580 263,-580 263,-544 319,-544 319,-580"/>
<text text-anchor="start" x="277.6644" y="-558.2" font-family="Helvetica,sans-Serif" font-size="12.00" fill="#000000">IDLE</text>
<path fill="none" stroke="#000000" stroke-width="2" d="M275.3333,-545C275.3333,-545 306.6667,-545 306.6667,-545 312.3333,-545 318,-550.6667 318,-556.3333 318,-556.3333 318,-567.6667 318,-567.6667 318,-573.3333 312.3333,-579 306.6667,-579 306.6667,-579 275.3333,-579 275.3333,-579 269.6667,-579 264,-573.3333 264,-567.6667 264,-567.6667 264,-556.3333 264,-556.3333 264,-550.6667 269.6667,-545 275.3333,-545"/>
</g>
<!-- IDLE&#45;&gt;IDLE -->
<g id="edge2" class="edge transition">
<title>IDLE&#45;&gt;IDLE</title>
<path fill="none" stroke="#000000" d="M319.0183,-566.8247C330.888,-567.1883 341,-565.5801 341,-562 341,-559.5387 336.2205,-558.0094 329.3762,-557.4121"/>
<polygon fill="#000000" stroke="#000000" points="329.0957,-553.9049 319.0183,-557.1753 328.9356,-560.903 329.0957,-553.9049"/>
<text text-anchor="start" x="341" y="-559" font-family="Helvetica,sans-Serif" font-size="10.00" fill="#000000">not (i_enable &amp;&amp; !f_empty) &#160;&#160;</text>
</g>
<!-- FIFO_READ -->
<g id="node3" class="node state regular">
<title>FIFO_READ</title>
<polygon fill="#ffffff" fill-opacity="0.003922" stroke="transparent" stroke-width="2" points="335.5,-498 246.5,-498 246.5,-462 335.5,-462 335.5,-498"/>
<text text-anchor="start" x="257.8334" y="-476.2" font-family="Helvetica,sans-Serif" font-size="12.00" fill="#000000">FIFO_READ</text>
<path fill="none" stroke="#000000" stroke-width="2" d="M258.8333,-463C258.8333,-463 323.1667,-463 323.1667,-463 328.8333,-463 334.5,-468.6667 334.5,-474.3333 334.5,-474.3333 334.5,-485.6667 334.5,-485.6667 334.5,-491.3333 328.8333,-497 323.1667,-497 323.1667,-497 258.8333,-497 258.8333,-497 253.1667,-497 247.5,-491.3333 247.5,-485.6667 247.5,-485.6667 247.5,-474.3333 247.5,-474.3333 247.5,-468.6667 253.1667,-463 258.8333,-463"/>
</g>
<!-- IDLE&#45;&gt;FIFO_READ -->
<g id="edge1" class="edge transition">
<title>IDLE&#45;&gt;FIFO_READ</title>
<path fill="none" stroke="#000000" d="M291,-543.8015C291,-533.3976 291,-520.1215 291,-508.3768"/>
<polygon fill="#000000" stroke="#000000" points="294.5001,-508.1476 291,-498.1476 287.5001,-508.1476 294.5001,-508.1476"/>
<text text-anchor="start" x="291" y="-518" font-family="Helvetica,sans-Serif" font-size="10.00" fill="#000000">i_enable &amp;&amp; !f_empty &#160;&#160;</text>
</g>
<!-- DATA_SAMPLE -->
<g id="node4" class="node state regular">
<title>DATA_SAMPLE</title>
<polygon fill="#ffffff" fill-opacity="0.003922" stroke="transparent" stroke-width="2" points="345.5,-416 236.5,-416 236.5,-380 345.5,-380 345.5,-416"/>
<text text-anchor="start" x="247.8266" y="-394.2" font-family="Helvetica,sans-Serif" font-size="12.00" fill="#000000">DATA_SAMPLE</text>
<path fill="none" stroke="#000000" stroke-width="2" d="M248.8333,-381C248.8333,-381 333.1667,-381 333.1667,-381 338.8333,-381 344.5,-386.6667 344.5,-392.3333 344.5,-392.3333 344.5,-403.6667 344.5,-403.6667 344.5,-409.3333 338.8333,-415 333.1667,-415 333.1667,-415 248.8333,-415 248.8333,-415 243.1667,-415 237.5,-409.3333 237.5,-403.6667 237.5,-403.6667 237.5,-392.3333 237.5,-392.3333 237.5,-386.6667 243.1667,-381 248.8333,-381"/>
</g>
<!-- FIFO_READ&#45;&gt;DATA_SAMPLE -->
<g id="edge3" class="edge transition">
<title>FIFO_READ&#45;&gt;DATA_SAMPLE</title>
<path fill="none" stroke="#000000" d="M291,-461.8015C291,-451.3976 291,-438.1215 291,-426.3768"/>
<polygon fill="#000000" stroke="#000000" points="294.5001,-426.1476 291,-416.1476 287.5001,-426.1476 294.5001,-426.1476"/>
<text text-anchor="middle" x="292.3895" y="-436" font-family="Helvetica,sans-Serif" font-size="10.00" fill="#000000"> </text>
</g>
<!-- DATA_DECODE -->
<g id="node5" class="node state regular">
<title>DATA_DECODE</title>
<polygon fill="#ffffff" fill-opacity="0.003922" stroke="transparent" stroke-width="2" points="346.5,-334 235.5,-334 235.5,-298 346.5,-298 346.5,-334"/>
<text text-anchor="start" x="246.5006" y="-312.2" font-family="Helvetica,sans-Serif" font-size="12.00" fill="#000000">DATA_DECODE</text>
<path fill="none" stroke="#000000" stroke-width="2" d="M247.8333,-299C247.8333,-299 334.1667,-299 334.1667,-299 339.8333,-299 345.5,-304.6667 345.5,-310.3333 345.5,-310.3333 345.5,-321.6667 345.5,-321.6667 345.5,-327.3333 339.8333,-333 334.1667,-333 334.1667,-333 247.8333,-333 247.8333,-333 242.1667,-333 236.5,-327.3333 236.5,-321.6667 236.5,-321.6667 236.5,-310.3333 236.5,-310.3333 236.5,-304.6667 242.1667,-299 247.8333,-299"/>
</g>
<!-- DATA_SAMPLE&#45;&gt;DATA_DECODE -->
<g id="edge4" class="edge transition">
<title>DATA_SAMPLE&#45;&gt;DATA_DECODE</title>
<path fill="none" stroke="#000000" d="M291,-379.8015C291,-369.3976 291,-356.1215 291,-344.3768"/>
<polygon fill="#000000" stroke="#000000" points="294.5001,-344.1476 291,-334.1476 287.5001,-344.1476 294.5001,-344.1476"/>
<text text-anchor="middle" x="292.3895" y="-354" font-family="Helvetica,sans-Serif" font-size="10.00" fill="#000000"> </text>
</g>
<!-- W_FIFO_READ -->
<g id="node6" class="node state regular">
<title>W_FIFO_READ</title>
<polygon fill="#ffffff" fill-opacity="0.003922" stroke="transparent" stroke-width="2" points="282.5,-228 175.5,-228 175.5,-192 282.5,-192 282.5,-228"/>
<text text-anchor="start" x="186.8346" y="-206.2" font-family="Helvetica,sans-Serif" font-size="12.00" fill="#000000">W_FIFO_READ</text>
<path fill="none" stroke="#000000" stroke-width="2" d="M187.8333,-193C187.8333,-193 270.1667,-193 270.1667,-193 275.8333,-193 281.5,-198.6667 281.5,-204.3333 281.5,-204.3333 281.5,-215.6667 281.5,-215.6667 281.5,-221.3333 275.8333,-227 270.1667,-227 270.1667,-227 187.8333,-227 187.8333,-227 182.1667,-227 176.5,-221.3333 176.5,-215.6667 176.5,-215.6667 176.5,-204.3333 176.5,-204.3333 176.5,-198.6667 182.1667,-193 187.8333,-193"/>
</g>
<!-- DATA_DECODE&#45;&gt;W_FIFO_READ -->
<g id="edge5" class="edge transition">
<title>DATA_DECODE&#45;&gt;W_FIFO_READ</title>
<path fill="none" stroke="#000000" d="M263.9319,-297.8201C258.2254,-292.9287 252.7155,-287.2414 248.67,-281 240.3543,-268.1704 235.5158,-251.8426 232.7203,-238.0804"/>
<polygon fill="#000000" stroke="#000000" points="236.1526,-237.3904 230.957,-228.1569 229.2605,-238.615 236.1526,-237.3904"/>
<text text-anchor="start" x="248" y="-260" font-family="Helvetica,sans-Serif" font-size="10.00" fill="#000000">r_write &#160;&#160;</text>
</g>
<!-- R_FIFO_WRITE -->
<g id="node9" class="node state regular">
<title>R_FIFO_WRITE</title>
<polygon fill="#ffffff" fill-opacity="0.003922" stroke="transparent" stroke-width="2" points="414.5,-228 305.5,-228 305.5,-192 414.5,-192 414.5,-228"/>
<text text-anchor="start" x="316.5032" y="-206.2" font-family="Helvetica,sans-Serif" font-size="12.00" fill="#000000">R_FIFO_WRITE</text>
<path fill="none" stroke="#000000" stroke-width="2" d="M317.8333,-193C317.8333,-193 402.1667,-193 402.1667,-193 407.8333,-193 413.5,-198.6667 413.5,-204.3333 413.5,-204.3333 413.5,-215.6667 413.5,-215.6667 413.5,-221.3333 407.8333,-227 402.1667,-227 402.1667,-227 317.8333,-227 317.8333,-227 312.1667,-227 306.5,-221.3333 306.5,-215.6667 306.5,-215.6667 306.5,-204.3333 306.5,-204.3333 306.5,-198.6667 312.1667,-193 317.8333,-193"/>
</g>
<!-- DATA_DECODE&#45;&gt;R_FIFO_WRITE -->
<g id="edge6" class="edge transition">
<title>DATA_DECODE&#45;&gt;R_FIFO_WRITE</title>
<path fill="none" stroke="#000000" d="M300.1409,-297.9896C307.8378,-283.327 319.4643,-262.2999 331.336,-245 333.3525,-242.0615 335.5546,-239.0652 337.8133,-236.1237"/>
<polygon fill="#000000" stroke="#000000" points="340.7319,-238.077 344.2212,-228.0732 335.255,-233.7176 340.7319,-238.077"/>
<text text-anchor="start" x="331" y="-260" font-family="Helvetica,sans-Serif" font-size="10.00" fill="#000000">not (r_write) &#160;&#160;</text>
</g>
<!-- W_DATA_WRITE -->
<g id="node7" class="node state regular">
<title>W_DATA_WRITE</title>
<polygon fill="#ffffff" fill-opacity="0.003922" stroke="transparent" stroke-width="2" points="184.5,-146 67.5,-146 67.5,-110 184.5,-110 184.5,-146"/>
<text text-anchor="start" x="78.8372" y="-124.2" font-family="Helvetica,sans-Serif" font-size="12.00" fill="#000000">W_DATA_WRITE</text>
<path fill="none" stroke="#000000" stroke-width="2" d="M79.8333,-111C79.8333,-111 172.1667,-111 172.1667,-111 177.8333,-111 183.5,-116.6667 183.5,-122.3333 183.5,-122.3333 183.5,-133.6667 183.5,-133.6667 183.5,-139.3333 177.8333,-145 172.1667,-145 172.1667,-145 79.8333,-145 79.8333,-145 74.1667,-145 68.5,-139.3333 68.5,-133.6667 68.5,-133.6667 68.5,-122.3333 68.5,-122.3333 68.5,-116.6667 74.1667,-111 79.8333,-111"/>
</g>
<!-- W_FIFO_READ&#45;&gt;W_DATA_WRITE -->
<g id="edge7" class="edge transition">
<title>W_FIFO_READ&#45;&gt;W_DATA_WRITE</title>
<path fill="none" stroke="#000000" d="M206.141,-191.8015C191.6058,-180.2298 172.6075,-165.105 156.7568,-152.486"/>
<polygon fill="#000000" stroke="#000000" points="158.7986,-149.6378 148.7951,-146.1476 154.4387,-155.1143 158.7986,-149.6378"/>
<text text-anchor="middle" x="185.3895" y="-166" font-family="Helvetica,sans-Serif" font-size="10.00" fill="#000000"> </text>
</g>
<!-- W_ACK -->
<g id="node8" class="node state regular">
<title>W_ACK</title>
<polygon fill="#ffffff" fill-opacity="0.003922" stroke="transparent" stroke-width="2" points="119,-52 55,-52 55,-16 119,-16 119,-52"/>
<text text-anchor="start" x="65.667" y="-30.2" font-family="Helvetica,sans-Serif" font-size="12.00" fill="#000000">W_ACK</text>
<path fill="none" stroke="#000000" stroke-width="2" d="M67.3333,-17C67.3333,-17 106.6667,-17 106.6667,-17 112.3333,-17 118,-22.6667 118,-28.3333 118,-28.3333 118,-39.6667 118,-39.6667 118,-45.3333 112.3333,-51 106.6667,-51 106.6667,-51 67.3333,-51 67.3333,-51 61.6667,-51 56,-45.3333 56,-39.6667 56,-39.6667 56,-28.3333 56,-28.3333 56,-22.6667 61.6667,-17 67.3333,-17"/>
</g>
<!-- W_DATA_WRITE&#45;&gt;W_ACK -->
<g id="edge8" class="edge transition">
<title>W_DATA_WRITE&#45;&gt;W_ACK</title>
<path fill="none" stroke="#000000" d="M118.4804,-109.8759C112.8153,-96.2215 104.9477,-77.2585 98.4951,-61.7061"/>
<polygon fill="#000000" stroke="#000000" points="101.5616,-59.9638 94.4965,-52.0685 95.096,-62.6464 101.5616,-59.9638"/>
<text text-anchor="middle" x="112.3895" y="-78" font-family="Helvetica,sans-Serif" font-size="10.00" fill="#000000"> </text>
</g>
<!-- W_ACK&#45;&gt;IDLE -->
<g id="edge11" class="edge transition">
<title>W_ACK&#45;&gt;IDLE</title>
<path fill="none" stroke="#000000" d="M54.8682,-42.3299C36.4664,-49.2491 17,-61.2387 17,-81 17,-236.5 17,-236.5 17,-236.5 17,-284.5267 38,-294.4733 38,-342.5 38,-521 38,-521 38,-521 38,-542.4794 181.9298,-554.8817 252.6714,-559.6803"/>
<polygon fill="#000000" stroke="#000000" points="252.749,-563.1929 262.9579,-560.3594 253.2102,-556.2081 252.749,-563.1929"/>
<text text-anchor="start" x="37" y="-325" font-family="Helvetica,sans-Serif" font-size="10.00" fill="#000000">not (i_enable &amp;&amp; !f_empty) &#160;&#160;</text>
<text text-anchor="start" x="37" y="-313" font-family="Helvetica,sans-Serif" font-size="10.00" fill="#000000">not (frame_count &lt; length) &#160;&#160;</text>
<text text-anchor="start" x="37" y="-301" font-family="Helvetica,sans-Serif" font-size="10.00" fill="#000000">APB_ready &#160;&#160;</text>
</g>
<!-- W_ACK&#45;&gt;FIFO_READ -->
<g id="edge10" class="edge transition">
<title>W_ACK&#45;&gt;FIFO_READ</title>
<path fill="none" stroke="#000000" d="M77.5818,-52.1542C70.3371,-67.1969 60.9233,-89.3757 57,-110 54.01,-125.7181 54.3779,-130.2163 57,-146 67.3912,-208.5486 56.5296,-238.0012 103.128,-281 125.6653,-301.7963 146.8982,-277.8326 170,-298 186.0719,-312.0304 188,-321.1655 188,-342.5 188,-439 188,-439 188,-439 188,-450.8513 211.8365,-460.7885 236.5758,-467.9105"/>
<polygon fill="#000000" stroke="#000000" points="235.8532,-471.3412 246.4218,-470.5957 237.6951,-464.5878 235.8532,-471.3412"/>
<text text-anchor="start" x="103" y="-272" font-family="Helvetica,sans-Serif" font-size="10.00" fill="#000000">i_enable &amp;&amp; !f_empty &#160;&#160;</text>
<text text-anchor="start" x="103" y="-260" font-family="Helvetica,sans-Serif" font-size="10.00" fill="#000000">not (frame_count &lt; length) &#160;&#160;</text>
<text text-anchor="start" x="103" y="-248" font-family="Helvetica,sans-Serif" font-size="10.00" fill="#000000">APB_ready &#160;&#160;</text>
</g>
<!-- W_ACK&#45;&gt;W_FIFO_READ -->
<g id="edge9" class="edge transition">
<title>W_ACK&#45;&gt;W_FIFO_READ</title>
<path fill="none" stroke="#000000" d="M119.222,-38.0994C161.118,-44.348 229,-58.0183 229,-81 229,-169 229,-169 229,-169 229,-173.0484 229,-177.3216 229,-181.52"/>
<polygon fill="#000000" stroke="#000000" points="225.5001,-181.6312 229,-191.6312 232.5001,-181.6313 225.5001,-181.6312"/>
<text text-anchor="start" x="229" y="-131" font-family="Helvetica,sans-Serif" font-size="10.00" fill="#000000">frame_count &lt; length &#160;&#160;</text>
<text text-anchor="start" x="229" y="-119" font-family="Helvetica,sans-Serif" font-size="10.00" fill="#000000">APB_ready &#160;&#160;</text>
</g>
<!-- W_ACK&#45;&gt;W_ACK -->
<g id="edge12" class="edge transition">
<title>W_ACK&#45;&gt;W_ACK</title>
<path fill="none" stroke="#000000" d="M119.1538,-38.8643C131.1365,-39.0238 141,-37.4023 141,-34 141,-31.6609 136.3379,-30.1635 129.5304,-29.5079"/>
<polygon fill="#000000" stroke="#000000" points="129.2729,-25.9966 119.1538,-29.1357 129.0219,-32.9921 129.2729,-25.9966"/>
<text text-anchor="start" x="141" y="-31" font-family="Helvetica,sans-Serif" font-size="10.00" fill="#000000">not (APB_ready) &#160;&#160;</text>
</g>
<!-- R_ADDR -->
<g id="node10" class="node state regular">
<title>R_ADDR</title>
<polygon fill="#ffffff" fill-opacity="0.003922" stroke="transparent" stroke-width="2" points="424.5,-146 353.5,-146 353.5,-110 424.5,-110 424.5,-146"/>
<text text-anchor="start" x="364.8376" y="-124.2" font-family="Helvetica,sans-Serif" font-size="12.00" fill="#000000">R_ADDR</text>
<path fill="none" stroke="#000000" stroke-width="2" d="M365.8333,-111C365.8333,-111 412.1667,-111 412.1667,-111 417.8333,-111 423.5,-116.6667 423.5,-122.3333 423.5,-122.3333 423.5,-133.6667 423.5,-133.6667 423.5,-139.3333 417.8333,-145 412.1667,-145 412.1667,-145 365.8333,-145 365.8333,-145 360.1667,-145 354.5,-139.3333 354.5,-133.6667 354.5,-133.6667 354.5,-122.3333 354.5,-122.3333 354.5,-116.6667 360.1667,-111 365.8333,-111"/>
</g>
<!-- R_FIFO_WRITE&#45;&gt;R_ADDR -->
<g id="edge13" class="edge transition">
<title>R_FIFO_WRITE&#45;&gt;R_ADDR</title>
<path fill="none" stroke="#000000" d="M366.436,-191.8015C370.1906,-181.1853 375.0027,-167.5784 379.2179,-155.6596"/>
<polygon fill="#000000" stroke="#000000" points="382.5474,-156.7424 382.582,-146.1476 375.9479,-154.4084 382.5474,-156.7424"/>
<text text-anchor="middle" x="377.3895" y="-166" font-family="Helvetica,sans-Serif" font-size="10.00" fill="#000000"> </text>
</g>
<!-- R_DATA_READ -->
<g id="node11" class="node state regular">
<title>R_DATA_READ</title>
<polygon fill="#ffffff" fill-opacity="0.003922" stroke="transparent" stroke-width="2" points="423.5,-52 314.5,-52 314.5,-16 423.5,-16 423.5,-52"/>
<text text-anchor="start" x="325.8326" y="-30.2" font-family="Helvetica,sans-Serif" font-size="12.00" fill="#000000">R_DATA_READ</text>
<path fill="none" stroke="#000000" stroke-width="2" d="M326.8333,-17C326.8333,-17 411.1667,-17 411.1667,-17 416.8333,-17 422.5,-22.6667 422.5,-28.3333 422.5,-28.3333 422.5,-39.6667 422.5,-39.6667 422.5,-45.3333 416.8333,-51 411.1667,-51 411.1667,-51 326.8333,-51 326.8333,-51 321.1667,-51 315.5,-45.3333 315.5,-39.6667 315.5,-39.6667 315.5,-28.3333 315.5,-28.3333 315.5,-22.6667 321.1667,-17 326.8333,-17"/>
</g>
<!-- R_ADDR&#45;&gt;R_DATA_READ -->
<g id="edge14" class="edge transition">
<title>R_ADDR&#45;&gt;R_DATA_READ</title>
<path fill="none" stroke="#000000" d="M353.4527,-115.6762C326.2358,-106.1576 293.173,-94.3782 292.221,-93 286.1587,-84.2235 286.4511,-77.9714 292.221,-69 295.7572,-63.5017 300.3936,-58.8568 305.6392,-54.9348"/>
<polygon fill="#000000" stroke="#000000" points="307.8012,-57.7054 314.313,-49.348 304.0107,-51.8205 307.8012,-57.7054"/>
<text text-anchor="middle" x="293.3895" y="-78" font-family="Helvetica,sans-Serif" font-size="10.00" fill="#000000"> </text>
</g>
<!-- R_DATA_READ&#45;&gt;IDLE -->
<g id="edge17" class="edge transition">
<title>R_DATA_READ&#45;&gt;IDLE</title>
<path fill="none" stroke="#000000" d="M423.6509,-36.2219C482.8672,-40.1605 569,-51.0388 569,-81 569,-236.5 569,-236.5 569,-236.5 569,-257.6718 565.8167,-264.958 552,-281 515.7003,-323.1462 443,-286.8765 443,-342.5 443,-521 443,-521 443,-521 443,-544.5185 374.3092,-554.9451 329.2816,-559.2533"/>
<polygon fill="#000000" stroke="#000000" points="328.8822,-555.775 319.2338,-560.152 329.5059,-562.7472 328.8822,-555.775"/>
<text text-anchor="start" x="526" y="-325" font-family="Helvetica,sans-Serif" font-size="10.00" fill="#000000">not (i_enable &amp;&amp; !f_empty) &#160;&#160;</text>
<text text-anchor="start" x="526" y="-313" font-family="Helvetica,sans-Serif" font-size="10.00" fill="#000000">not (frame_count &lt; length) &#160;&#160;</text>
<text text-anchor="start" x="526" y="-301" font-family="Helvetica,sans-Serif" font-size="10.00" fill="#000000">APB_ready &#160;&#160;</text>
</g>
<!-- R_DATA_READ&#45;&gt;FIFO_READ -->
<g id="edge16" class="edge transition">
<title>R_DATA_READ&#45;&gt;FIFO_READ</title>
<path fill="none" stroke="#000000" d="M423.5934,-50.7861C431.2959,-55.4747 438.21,-61.4357 443,-69 508.906,-173.0777 398,-219.3101 398,-342.5 398,-439 398,-439 398,-439 398,-451.5795 371.8862,-461.7362 345.46,-468.7939"/>
<polygon fill="#000000" stroke="#000000" points="344.5914,-465.4032 335.7577,-471.2526 346.311,-472.1888 344.5914,-465.4032"/>
<text text-anchor="start" x="421" y="-272" font-family="Helvetica,sans-Serif" font-size="10.00" fill="#000000">i_enable &amp;&amp; !f_empty &#160;&#160;</text>
<text text-anchor="start" x="421" y="-260" font-family="Helvetica,sans-Serif" font-size="10.00" fill="#000000">not (frame_count &lt; length) &#160;&#160;</text>
<text text-anchor="start" x="421" y="-248" font-family="Helvetica,sans-Serif" font-size="10.00" fill="#000000">APB_ready &#160;&#160;</text>
</g>
<!-- R_DATA_READ&#45;&gt;R_ADDR -->
<g id="edge15" class="edge transition">
<title>R_DATA_READ&#45;&gt;R_ADDR</title>
<path fill="none" stroke="#000000" d="M349.7149,-52.0407C345.5357,-57.0848 341.7006,-62.8765 339.462,-69 335.7996,-79.0182 334.5567,-83.5282 339.462,-93 341.3158,-96.5796 343.7229,-99.8713 346.4764,-102.8811"/>
<polygon fill="#000000" stroke="#000000" points="344.2056,-105.5487 353.9164,-109.7856 348.9673,-100.4177 344.2056,-105.5487"/>
<text text-anchor="start" x="339" y="-84" font-family="Helvetica,sans-Serif" font-size="10.00" fill="#000000">frame_count &lt; length &#160;&#160;</text>
<text text-anchor="start" x="339" y="-72" font-family="Helvetica,sans-Serif" font-size="10.00" fill="#000000">APB_ready &#160;&#160;</text>
</g>
<!-- R_DATA_READ&#45;&gt;R_DATA_READ -->
<g id="edge18" class="edge transition">
<title>R_DATA_READ&#45;&gt;R_DATA_READ</title>
<path fill="none" stroke="#000000" d="M423.6677,-38.7676C436.2542,-38.3568 445.5,-36.7676 445.5,-34 445.5,-32.054 440.929,-30.6907 433.8398,-29.9099"/>
<polygon fill="#000000" stroke="#000000" points="433.8782,-26.4048 423.6677,-29.2324 433.413,-33.3893 433.8782,-26.4048"/>
<text text-anchor="start" x="445.5" y="-31" font-family="Helvetica,sans-Serif" font-size="10.00" fill="#000000">not (APB_ready) &#160;&#160;</text>
</g>
</g>
</svg>
